<?xml version="1.0" encoding="utf-8"?>
<!-- Generator: Adobe Illustrator 21.0.0, SVG Export Plug-In . SVG Version: 6.00 Build 0)  -->
<!DOCTYPE svg PUBLIC "-//W3C//DTD SVG 1.1//EN" "http://www.w3.org/Graphics/SVG/1.1/DTD/svg11.dtd">
<svg version="1.1" id="Layer_1" xmlns="http://www.w3.org/2000/svg" xmlns:xlink="http://www.w3.org/1999/xlink" x="0px" y="0px"
	 viewBox="0 0 1157 465" enable-background="new 0 0 1157 465" xml:space="preserve">
<g>
	<g>
		<g>
			<path fill="#608867" d="M132.9,200.2c-36.4,8-67.1,18.4-114,40.4c4.3,25.3,12.6,56.4,20.5,72.1c30.1-21.2,92.5-39.6,128.2-41.3
				C145.1,241.8,136.7,216.3,132.9,200.2"/>
			<path fill="#608867" d="M178,285c-63,22.6-90.7,39.7-121.1,66.7c9,17.2,40.2,56.3,62.5,68.1c29.4-27.3,77.7-53.3,121.9-63.3
				C215.7,341.5,183.5,303.9,178,285"/>
			<path fill="#608867" d="M120.3,115.4c-27.6-6.6-79.7-0.9-102.5,5.5c-5.1,19.4-5.3,55.1-4.3,79.4c29.7-10.5,90.9-25.9,113.5-19.2
				C122.1,172.6,117.8,126.3,120.3,115.4"/>
			<path fill="#608867" d="M75.4,61.6c-5.5-2.2-13.6-4.5-16.7-4.3C58,59,56,71.4,55.8,75.9c3.1,0.6,15.4,0.7,21.6,3.2
				c1.1,0.4,2,0.9,2.6,1.5c-2.5-4.7-0.6-13.5,0.5-16.4C79.6,63.5,77.7,62.6,75.4,61.6"/>
			<path fill="#608867" d="M73.3,34c-1.3-0.5-2.7-1-4-1.3c-3,4.2-5.9,10.3-7.6,15.5c1.8,0.5,3.7,1.1,5.6,1.9
				c5.2,2.1,10.4,5.2,14.4,8.5c0.8-4.7,1.7-10.1,5.9-14.7C83.7,39.9,78.5,36.1,73.3,34"/>
		</g>
		<g id="Front">
			<path display="none" fill="#83B489" d="M181.3,446.6c11.9,4.8,29.8,3.2,49.6-10.4c27.5-19.4,43.5-50.4,10.3-79.7
				c-16.4-14.4-49.8-40.4-63.3-71.4C163.6,342.6,163.1,408.7,181.3,446.6z"/>
			<path fill="#83B489" d="M159.1,440.6c21.8,8.8,49.7,10.7,71.9-4.4c-1.7-28.3,2.1-55.9,10.3-79.7c-18.5-11.6-49.8-40.4-63.3-71.4
				C163.6,342.6,158.3,395.7,159.1,440.6z"/>
			<path display="none" fill="#83B489" d="M171,433c29.8,2.9,50.9,10.9,74.4-0.1c-10.2-26.6-12.7-54.8-4.1-76.5
				c-18.5-11.6-49.8-40.4-63.3-71.4C163.6,342.6,170.2,388.1,171,433z"/>
			<path fill="#83B489" d="M119.5,419.8c4.5-52.4,27-115.9,48.2-148.4c-15.2-22-26-46.8-34.7-71.2c-34.6,49.1-63.3,102.8-76,151.5
				C70.7,379.2,106.2,415,119.5,419.8z"/>
			<path fill="#83B489" d="M39.5,312.7c14.5-37.5,56.7-104,87.4-131.6c-3.3-9.6-8.7-41.8-6.7-65.7C93.4,137.4,43.7,195.7,19,240.6
				C20.2,257.1,33.3,303,39.5,312.7z"/>
			<path fill="#83B489" d="M17.7,120.9c16.2-21.4,56.7-43,62.8-56.6c-0.9,5-1.3,11-0.5,16.4c-3.2,11.9-46.6,72.9-66.5,119.6
				C10.6,179.7,12.5,141.9,17.7,120.9z"/>
			<path fill="#83B489" d="M55.8,75.9c3.8-3.8,21-16.5,25.9-17.4c0.9-4.4,3.3-10.3,5.9-14.7c-8.7,1.5-20.6,6-29,13.4
				C57,62.1,55.9,72.7,55.8,75.9z"/>
			<path fill="#83B489" d="M61.7,48.2c6.9-5.7,28.6-17.1,35.8-17.2c-1.6-4.8-7.9-8.8-8.6-15.1c-9.3,4-14.6,9.7-19.6,16.7
				C65.7,37.6,62.9,44.2,61.7,48.2z"/>
		</g>
	</g>
	<g>
		<path fill="#416D48" d="M270.9,219.7c0-35.4,25.6-65.5,68.8-65.5c15.8,0,27.2,4,37,10.3c3.4,2.4,4.2,5.3,2.2,9.1l-1.6,2.9
			c-2,3.6-5.1,4.4-9.1,2.2c-8-4.4-18.5-7.3-28.5-7.3c-31.2,0-49.2,22.1-49.2,48.3s18,48.3,49.2,48.3c10,0,20.5-2.9,28.5-7.3
			c4-2.2,7.1-1.5,9.1,2.2l1.6,2.9c2,3.8,1.6,6.4-1.1,8.3c-10,6.7-21.6,11.1-38.1,11.1C296.5,285.2,270.9,255.1,270.9,219.7z"/>
		<path fill="#416D48" d="M392.2,237.7c0-26.1,21.4-47.4,47.9-47.4c26.7,0,48.3,21.4,48.3,47.4c0,26.3-21.6,47.5-48.3,47.5
			C413.6,285.2,392.2,264.2,392.2,237.7z M469.6,237.9c0-17.2-13.1-31.2-29.6-31.2c-16.2,0-29.4,14-29.4,31.2
			c0,17.2,13.2,31,29.4,31C456.6,268.9,469.6,255.1,469.6,237.9z"/>
		<path fill="#416D48" d="M508.8,276.7v-77.9c0-4.2,2.5-6.5,6.7-6.5h5.4c4.2,0,6.5,2.4,6.5,6.5v13.8c3.1-14.5,13.4-22.3,24.3-22.3
			l4,0.2c3.8,0.5,4.4,3.6,4.4,7.3v5.3c0,4.5-1.8,6.4-4.9,5.6c-1.6-0.4-3.3-0.5-4.9-0.5c-6.5,0-22.9,3.3-22.9,40.5v28.1
			c0,4.2-2.4,6.5-6.5,6.5h-5.4C511.4,283.2,508.8,280.9,508.8,276.7z"/>
		<path fill="#416D48" d="M576,276.7v-77.9c0-4.2,2.5-6.5,6.7-6.5h5.4c4.2,0,6.5,2.4,6.5,6.5v11.3c4-12.7,15.6-19.8,30.3-19.8
			c20.1,0,34.8,13.1,34.8,41.6v44.8c0,4.2-2.5,6.5-6.7,6.5h-5.4c-4.2,0-6.5-2.4-6.5-6.5V232c0-18.7-8.5-25.4-18.1-25.4
			c-9.4,0-28.3,6.4-28.3,33.9v36.1c0,4.2-2.4,6.5-6.5,6.5h-5.4C578.5,283.2,576,280.9,576,276.7z"/>
		<path fill="#416D48" d="M683,163.4c0-7.1,5.3-12.7,12.5-12.7c7.4,0,12.9,5.6,12.9,12.7c0,6.9-5.6,12.3-12.9,12.3
			S683,170.3,683,163.4z M686.3,276.7v-77.9c0-4.2,2.5-6.5,6.7-6.5h5.4c4.2,0,6.5,2.4,6.5,6.5v77.9c0,4.2-2.4,6.5-6.5,6.5H693
			C688.9,283.2,686.3,280.9,686.3,276.7z"/>
		<path fill="#416D48" d="M726.4,238.8c0-26.7,18.3-48.5,51.2-48.5c7.3,0,17.1,1.5,27.4,7.4c3.8,2.2,4.4,5.8,1.8,9.3l-1.5,1.8
			c-2.5,3.4-5.3,3.6-9.3,1.8c-7.8-3.8-15.6-4-17.6-4c-19.2,0-33.4,12.7-33.4,31s14.2,31.2,33.4,31.2c2,0,9.8-0.2,17.6-4
			c4-2,6.9-1.6,9.3,1.8l1.3,1.8c2.5,3.4,1.3,7.8-4.5,10.7c-9.1,4.9-18,6-24.5,6C745.5,285.2,726.4,264.7,726.4,238.8z"/>
		<path fill="#416D48" d="M829.1,276.7V158.5c0-4.2,2.5-6.5,6.7-6.5h5.4c4.2,0,6.5,2.4,6.5,6.5v51.5c4-12.7,15.6-19.8,30.3-19.8
			c20.1,0,34.8,13.1,34.8,41.6v44.8c0,4.2-2.5,6.5-6.7,6.5h-5.4c-4.2,0-6.5-2.4-6.5-6.5V232c0-18.7-8.5-25.4-18.1-25.4
			c-9.4,0-28.3,6.4-28.3,33.9v36.1c0,4.2-2.4,6.5-6.5,6.5h-5.4C831.7,283.2,829.1,280.9,829.1,276.7z"/>
		<path fill="#416D48" d="M932,237.7c0-26.1,21.4-47.4,47.9-47.4c26.7,0,48.3,21.4,48.3,47.4c0,26.3-21.6,47.5-48.3,47.5
			C953.4,285.2,932,264.2,932,237.7z M1009.5,237.9c0-17.2-13.1-31.2-29.6-31.2c-16.2,0-29.4,14-29.4,31.2c0,17.2,13.2,31,29.4,31
			C996.4,268.9,1009.5,255.1,1009.5,237.9z"/>
		<path fill="#416D48" d="M1048.7,276.7v-77.9c0-4.2,2.5-6.5,6.7-6.5h5.4c4.2,0,6.5,2.4,6.5,6.5v11.3c4-12.7,15.6-19.8,30.3-19.8
			c20.1,0,34.8,13.1,34.8,41.6v44.8c0,4.2-2.5,6.5-6.7,6.5h-5.4c-4.2,0-6.5-2.4-6.5-6.5V232c0-18.7-8.5-25.4-18.1-25.4
			c-9.4,0-28.3,6.4-28.3,33.9v36.1c0,4.2-2.4,6.5-6.5,6.5h-5.4C1051.2,283.2,1048.7,280.9,1048.7,276.7z"/>
	</g>
</g>
</svg>
