<?xml version="1.0" encoding="utf-8"?>
<!-- Generator: Adobe Illustrator 21.0.0, SVG Export Plug-In . SVG Version: 6.00 Build 0)  -->
<!DOCTYPE svg PUBLIC "-//W3C//DTD SVG 1.1//EN" "http://www.w3.org/Graphics/SVG/1.1/DTD/svg11.dtd">
<svg version="1.1" id="Layer_1" xmlns="http://www.w3.org/2000/svg" xmlns:xlink="http://www.w3.org/1999/xlink" x="0px" y="0px"
	 viewBox="0 0 263.7 485" enable-background="new 0 0 263.7 485" xml:space="preserve">
<rect x="-18.5" y="-11.6" display="none" fill="#FFFFFF" width="355.7" height="579.2"/>
<g>
	<g>
		<path fill="#608867" d="M139.1,208.1c-39.9,8.7-73.6,20.2-124.9,44.3c4.7,27.7,13.8,61.9,22.4,79.1c33-23.3,101.3-43.4,140.5-45.3
			C152.4,253.7,143.2,225.8,139.1,208.1"/>
		<path fill="#608867" d="M188.5,301.1c-69,24.8-99.5,43.5-132.7,73.1c9.9,18.9,44.1,61.7,68.5,74.7c32.2-29.9,85.1-58.5,133.6-69.4
			C229.8,363,194.5,321.7,188.5,301.1"/>
		<path fill="#608867" d="M125.2,115.1c-30.3-7.2-87.3-1-112.4,6.1c-5.6,21.3-5.9,60.3-4.7,87.1c32.6-11.5,99.6-28.4,124.4-21.1
			C127.3,177.8,122.5,127.1,125.2,115.1"/>
		<path fill="#608867" d="M76,56.2c-6.1-2.5-14.9-4.9-18.3-4.7c-0.8,1.9-2.9,15.4-3.1,20.4c3.3,0.7,16.8,0.8,23.6,3.5
			c1.2,0.5,2.2,1,2.9,1.7c-2.8-5.2-0.6-14.8,0.6-18C80.6,58.3,78.6,57.3,76,56.2"/>
		<path fill="#608867" d="M73.7,25.9c-1.5-0.6-2.9-1.1-4.4-1.4c-3.2,4.6-6.4,11.3-8.3,17c2,0.5,4.1,1.2,6.1,2
			c5.7,2.3,11.4,5.7,15.8,9.4c0.8-5.2,1.8-11.1,6.5-16.1C85.1,32.4,79.5,28.2,73.7,25.9"/>
	</g>
	<g id="Front">
		<path display="none" fill="#CB6E69" d="M192.2,478.1c13.1,5.3,32.7,3.5,54.4-11.4c30.2-21.3,47.7-55.3,11.3-87.3
			c-18-15.8-54.6-44.2-69.4-78.3C172.7,364.1,172.2,436.6,192.2,478.1z"/>
		<path fill="#83B489" d="M167.8,471.6c23.9,9.7,54.5,11.7,78.8-4.9c-1.8-31,2.3-61.3,11.3-87.3c-20.3-12.7-54.6-44.2-69.4-78.3
			C172.7,364.1,166.9,422.4,167.8,471.6z"/>
		<path display="none" fill="#83B489" d="M180.8,463.3c32.6,3.1,55.8,11.9,81.5-0.1c-11.2-29.1-13.9-60.1-4.5-83.8
			c-20.3-12.7-54.6-44.2-69.4-78.3C172.7,364.1,179.9,414.1,180.8,463.3z"/>
		<path fill="#83B489" d="M124.3,448.8c4.9-57.4,29.6-127,52.8-162.7c-16.7-24.1-28.4-51.3-38.1-78c-37.9,53.8-69.4,112.7-83.3,166
			C70.9,404.3,109.8,443.5,124.3,448.8z"/>
		<path fill="#83B489" d="M36.7,331.4c15.9-41.1,62.1-113.9,95.8-144.3c-3.7-10.5-9.5-45.8-7.3-72.1c-29.4,24.2-83.9,88.1-111,137.3
			C15.6,270.5,29.9,320.8,36.7,331.4z"/>
		<path fill="#83B489" d="M12.8,121.2C30.6,97.8,75,74.1,81.6,59.1c-1,5.5-1.4,12.1-0.6,18C77.5,90.2,30,157,8.1,208.3
			C5,185.7,7.1,144.2,12.8,121.2z"/>
		<path fill="#83B489" d="M54.6,71.9c4.1-4.2,23-18.1,28.4-19c1-4.8,3.6-11.2,6.5-16.1c-9.6,1.6-22.6,6.6-31.7,14.7
			C55.8,56.8,54.7,68.4,54.6,71.9z"/>
		<path fill="#83B489" d="M61,41.5c7.6-6.3,31.3-18.7,39.2-18.8c-1.7-5.2-8.7-9.6-9.5-16.5c-10.1,4.4-16,10.6-21.4,18.4
			C65.5,29.9,62.4,37.1,61,41.5z"/>
	</g>
</g>
</svg>
