<?xml version="1.0" encoding="utf-8"?>
<!-- Generator: Adobe Illustrator 21.0.0, SVG Export Plug-In . SVG Version: 6.00 Build 0)  -->
<!DOCTYPE svg PUBLIC "-//W3C//DTD SVG 1.1//EN" "http://www.w3.org/Graphics/SVG/1.1/DTD/svg11.dtd">
<svg version="1.1" id="Layer_1" xmlns="http://www.w3.org/2000/svg" xmlns:xlink="http://www.w3.org/1999/xlink" x="0px" y="0px"
	 viewBox="0 0 500 500" enable-background="new 0 0 500 500" xml:space="preserve">
<rect x="-9.3" y="-9.8" display="none" fill="#FFFFFF" width="518.9" height="523.6"/>
<g>
	<g>
		<path fill="#608867" d="M246.5,213.6c-41,9-75.6,20.8-128.3,45.5c4.8,28.5,14.1,63.6,23.1,81.2c33.9-23.9,104.1-44.6,144.4-46.5
			C260.2,260.5,250.7,231.8,246.5,213.6"/>
		<path fill="#608867" d="M297.3,309.2c-70.9,25.4-102.2,44.7-136.4,75.1c10.1,19.4,45.3,63.4,70.4,76.7
			c33.1-30.7,87.5-60.1,137.2-71.3C339.7,372.8,303.4,330.4,297.3,309.2"/>
		<path fill="#608867" d="M232.2,118.1c-31.1-7.4-89.7-1-115.5,6.2c-5.7,21.9-6,62-4.9,89.5c33.5-11.8,102.3-29.2,127.8-21.7
			C234.3,182.5,229.4,130.4,232.2,118.1"/>
		<path fill="#608867" d="M181.7,57.6c-6.2-2.5-15.3-5.1-18.8-4.9c-0.8,1.9-3,15.9-3.2,21c3.4,0.7,17.3,0.8,24.3,3.6
			c1.2,0.5,2.2,1.1,2.9,1.7c-2.9-5.3-0.7-15.3,0.6-18.5C186.4,59.7,184.3,58.6,181.7,57.6"/>
		<path fill="#608867" d="M179.3,26.4c-1.5-0.6-3-1.1-4.5-1.4c-3.3,4.7-6.6,11.6-8.5,17.5c2.1,0.5,4.2,1.2,6.3,2.1
			c5.9,2.4,11.7,5.9,16.2,9.6c0.8-5.3,1.9-11.4,6.7-16.6C191,33.1,185.3,28.8,179.3,26.4"/>
	</g>
	<g id="Front">
		<path display="none" fill="#CB6E69" d="M301,491.1c13.4,5.4,33.6,3.6,55.9-11.7c31-21.8,49-56.8,11.6-89.7
			c-18.5-16.3-56.1-45.5-71.3-80.5C281,373.9,280.5,448.4,301,491.1z"/>
		<path fill="#83B489" d="M276,484.4c24.5,9.9,56,12,80.9-5c-1.9-31.8,2.4-63,11.6-89.7c-20.8-13.1-56.1-45.5-71.3-80.5
			C281,373.9,275,433.8,276,484.4z"/>
		<path display="none" fill="#83B489" d="M289.4,475.8c33.5,3.2,57.4,12.3,83.8-0.1c-11.5-29.9-14.3-61.8-4.6-86.1
			c-20.8-13.1-56.1-45.5-71.3-80.5C281,373.9,288.5,425.3,289.4,475.8z"/>
		<path fill="#83B489" d="M231.3,461c5-59,30.4-130.5,54.3-167.1c-17.2-24.8-29.2-52.7-39.1-80.2c-38.9,55.3-71.3,115.8-85.6,170.6
			C176.4,415.2,216.3,455.5,231.3,461z"/>
		<path fill="#83B489" d="M141.3,340.4c16.3-42.3,63.8-117.1,98.5-148.2c-3.8-10.8-9.8-47.1-7.5-74c-30.2,24.9-86.2,90.5-114,141
			C119.6,277.7,134.3,329.4,141.3,340.4z"/>
		<path fill="#83B489" d="M116.8,124.3c18.3-24,63.9-48.4,70.7-63.8c-1.1,5.7-1.4,12.4-0.6,18.5c-3.6,13.4-52.5,82.1-74.9,134.7
			C108.7,190.6,110.9,148,116.8,124.3z"/>
		<path fill="#83B489" d="M159.6,73.7c4.3-4.3,23.7-18.6,29.2-19.6c1-5,3.7-11.5,6.7-16.6c-9.8,1.7-23.2,6.8-32.6,15.1
			C160.9,58.1,159.8,70.1,159.6,73.7z"/>
		<path fill="#83B489" d="M166.3,42.4c7.8-6.5,32.2-19.2,40.3-19.3c-1.8-5.4-8.9-9.9-9.7-17c-10.4,4.5-16.4,10.9-22,18.9
			C170.8,30.5,167.7,37.9,166.3,42.4z"/>
	</g>
</g>
</svg>
