<?xml version="1.0" encoding="utf-8"?>
<!-- Generator: Adobe Illustrator 21.0.2, SVG Export Plug-In . SVG Version: 6.00 Build 0)  -->
<svg version="1.1" id="Layer_1" xmlns="http://www.w3.org/2000/svg" xmlns:xlink="http://www.w3.org/1999/xlink" x="0px" y="0px"
	 viewBox="0 0 1200 643" enable-background="new 0 0 1200 643" xml:space="preserve">
<rect x="-15" y="-11.7" fill="#FFFFFF" width="1230" height="668.7"/>
<g>
	<g>
		<g>
			<path fill="#608867" d="M154.4,231.2c-36.4,8-67.1,18.4-114,40.4C44.7,296.8,53,328,61,343.7c30.1-21.2,92.5-39.6,128.2-41.3
				C166.6,272.8,158.2,247.3,154.4,231.2"/>
			<path fill="#608867" d="M199.5,316c-63,22.6-90.7,39.7-121.1,66.7c9,17.2,40.2,56.3,62.5,68.1c29.4-27.3,77.7-53.3,121.9-63.3
				C237.2,372.5,205,334.8,199.5,316"/>
			<path fill="#608867" d="M141.8,146.3c-27.6-6.6-79.7-0.9-102.5,5.5c-5.1,19.4-5.3,55.1-4.3,79.4c29.7-10.5,90.9-25.9,113.5-19.2
				C143.6,203.5,139.3,157.3,141.8,146.3"/>
			<path fill="#608867" d="M96.9,92.6c-5.5-2.2-13.6-4.5-16.7-4.3c-0.7,1.7-2.6,14.1-2.9,18.6c3.1,0.6,15.4,0.7,21.6,3.2
				c1.1,0.4,2,0.9,2.6,1.5c-2.5-4.7-0.6-13.5,0.5-16.4C101.1,94.5,99.2,93.5,96.9,92.6"/>
			<path fill="#608867" d="M94.8,64.9c-1.3-0.5-2.7-1-4-1.3c-3,4.2-5.9,10.3-7.6,15.5c1.8,0.5,3.7,1.1,5.6,1.9
				c5.2,2.1,10.4,5.2,14.4,8.5c0.8-4.7,1.7-10.1,5.9-14.7C105.2,70.8,100,67.1,94.8,64.9"/>
		</g>
		<g id="Front">
			<path display="none" fill="#83B489" d="M202.8,477.5c11.9,4.8,29.8,3.2,49.6-10.4c27.5-19.4,43.5-50.4,10.3-79.7
				C246.4,373,213,347.1,199.5,316C185.1,373.5,184.6,439.6,202.8,477.5z"/>
			<path fill="#83B489" d="M180.6,471.6c21.8,8.8,49.7,10.7,71.9-4.4c-1.7-28.3,2.1-55.9,10.3-79.7c-18.5-11.6-49.8-40.4-63.3-71.4
				C185.1,373.5,179.8,426.6,180.6,471.6z"/>
			<path display="none" fill="#83B489" d="M192.5,464c29.8,2.9,50.9,10.9,74.4-0.1c-10.2-26.6-12.7-54.8-4.1-76.5
				c-18.5-11.6-49.8-40.4-63.3-71.4C185.1,373.5,191.7,419.1,192.5,464z"/>
			<path fill="#83B489" d="M141,450.8c4.5-52.4,27-115.9,48.2-148.4c-15.2-22-26-46.8-34.7-71.2c-34.6,49.1-63.3,102.8-76,151.5
				C92.2,410.2,127.7,445.9,141,450.8z"/>
			<path fill="#83B489" d="M61,343.7c14.5-37.5,56.7-104,87.4-131.6c-3.3-9.6-8.7-41.8-6.7-65.7c-26.9,22.1-76.6,80.4-101.3,125.2
				C41.7,288.1,54.8,334,61,343.7z"/>
			<path fill="#83B489" d="M39.2,151.8c16.2-21.4,56.7-43,62.8-56.6c-0.9,5-1.3,11-0.5,16.4c-3.2,11.9-46.6,72.9-66.5,119.6
				C32.1,210.7,34,172.9,39.2,151.8z"/>
			<path fill="#83B489" d="M77.3,106.9c3.8-3.8,21-16.5,25.9-17.4c0.9-4.4,3.3-10.3,5.9-14.7c-8.7,1.5-20.6,6-29,13.4
				C78.5,93.1,77.4,103.7,77.3,106.9z"/>
			<path fill="#83B489" d="M83.2,79.1c6.9-5.7,28.6-17.1,35.8-17.2c-1.6-4.8-7.9-8.8-8.6-15.1c-9.3,4-14.6,9.7-19.6,16.7
				C87.2,68.6,84.4,75.1,83.2,79.1z"/>
		</g>
	</g>
	<text transform="matrix(1 0 0 1 284.2624 314.166)" fill="#416D48" font-family="'FilsonSoftRegular'" font-size="181.4707px">Cornichon</text>
</g>
<text transform="matrix(1 0 0 1 59.5488 575.9079)" fill="#416D48" font-family="'FilsonSoftBook'" font-size="58.558px">A scala DSL for testing HTTP JSON API</text>
</svg>
