<?xml version="1.0" encoding="utf-8"?>
<!-- Generator: Adobe Illustrator 21.0.2, SVG Export Plug-In . SVG Version: 6.00 Build 0)  -->
<svg version="1.1" id="Layer_1" xmlns="http://www.w3.org/2000/svg" xmlns:xlink="http://www.w3.org/1999/xlink" x="0px" y="0px"
	 viewBox="0 0 1200 643" enable-background="new 0 0 1200 643" xml:space="preserve">
<rect x="-15" y="-11.7" fill="#4A6D50" width="1230" height="668.7"/>
<g>
	<g>
		<g>
			<path fill="#608867" d="M154.4,231.2c-36.4,8-67.1,18.4-114,40.4C44.7,296.8,53,328,61,343.7c30.1-21.2,92.5-39.6,128.2-41.3
				C166.6,272.8,158.2,247.3,154.4,231.2"/>
			<path fill="#608867" d="M199.5,316c-63,22.6-90.7,39.7-121.1,66.7c9,17.2,40.2,56.3,62.5,68.1c29.4-27.3,77.7-53.3,121.9-63.3
				C237.2,372.5,205,334.8,199.5,316"/>
			<path fill="#608867" d="M141.8,146.3c-27.6-6.6-79.7-0.9-102.5,5.5c-5.1,19.4-5.3,55.1-4.3,79.4c29.7-10.5,90.9-25.9,113.5-19.2
				C143.6,203.5,139.3,157.3,141.8,146.3"/>
			<path fill="#608867" d="M96.9,92.6c-5.5-2.2-13.6-4.5-16.7-4.3c-0.7,1.7-2.6,14.1-2.9,18.6c3.1,0.6,15.4,0.7,21.6,3.2
				c1.1,0.4,2,0.9,2.6,1.5c-2.5-4.7-0.6-13.5,0.5-16.4C101.1,94.5,99.2,93.5,96.9,92.6"/>
			<path fill="#608867" d="M94.8,64.9c-1.3-0.5-2.7-1-4-1.3c-3,4.2-5.9,10.3-7.6,15.5c1.8,0.5,3.7,1.1,5.6,1.9
				c5.2,2.1,10.4,5.2,14.4,8.5c0.8-4.7,1.7-10.1,5.9-14.7C105.2,70.8,100,67.1,94.8,64.9"/>
		</g>
		<g id="Front">
			<path display="none" fill="#83B489" d="M202.8,477.5c11.9,4.8,29.8,3.2,49.6-10.4c27.5-19.4,43.5-50.4,10.3-79.7
				C246.4,373,213,347.1,199.5,316C185.1,373.5,184.6,439.6,202.8,477.5z"/>
			<path fill="#83B489" d="M180.6,471.6c21.8,8.8,49.7,10.7,71.9-4.4c-1.7-28.3,2.1-55.9,10.3-79.7c-18.5-11.6-49.8-40.4-63.3-71.4
				C185.1,373.5,179.8,426.6,180.6,471.6z"/>
			<path display="none" fill="#83B489" d="M192.5,464c29.8,2.9,50.9,10.9,74.4-0.1c-10.2-26.6-12.7-54.8-4.1-76.5
				c-18.5-11.6-49.8-40.4-63.3-71.4C185.1,373.5,191.7,419.1,192.5,464z"/>
			<path fill="#83B489" d="M141,450.8c4.5-52.4,27-115.9,48.2-148.4c-15.2-22-26-46.8-34.7-71.2c-34.6,49.1-63.3,102.8-76,151.5
				C92.2,410.2,127.7,445.9,141,450.8z"/>
			<path fill="#83B489" d="M61,343.7c14.5-37.5,56.7-104,87.4-131.6c-3.3-9.6-8.7-41.8-6.7-65.7c-26.9,22.1-76.6,80.4-101.3,125.2
				C41.7,288.1,54.8,334,61,343.7z"/>
			<path fill="#83B489" d="M39.2,151.8c16.2-21.4,56.7-43,62.8-56.6c-0.9,5-1.3,11-0.5,16.4c-3.2,11.9-46.6,72.9-66.5,119.6
				C32.1,210.7,34,172.9,39.2,151.8z"/>
			<path fill="#83B489" d="M77.3,106.9c3.8-3.8,21-16.5,25.9-17.4c0.9-4.4,3.3-10.3,5.9-14.7c-8.7,1.5-20.6,6-29,13.4
				C78.5,93.1,77.4,103.7,77.3,106.9z"/>
			<path fill="#83B489" d="M83.2,79.1c6.9-5.7,28.6-17.1,35.8-17.2c-1.6-4.8-7.9-8.8-8.6-15.1c-9.3,4-14.6,9.7-19.6,16.7
				C87.2,68.6,84.4,75.1,83.2,79.1z"/>
		</g>
	</g>
	<g>
		<path fill="#83B489" d="M292.4,250.7c0-35.4,25.6-65.5,68.8-65.5c15.8,0,27.2,4,37,10.3c3.4,2.4,4.2,5.3,2.2,9.1l-1.6,2.9
			c-2,3.6-5.1,4.4-9.1,2.2c-8-4.4-18.5-7.3-28.5-7.3c-31.2,0-49.2,22.1-49.2,48.3c0,26.1,18,48.3,49.2,48.3c10,0,20.5-2.9,28.5-7.3
			c4-2.2,7.1-1.5,9.1,2.2l1.6,2.9c2,3.8,1.6,6.4-1.1,8.3c-10,6.7-21.6,11.1-38.1,11.1C318,316.2,292.4,286,292.4,250.7z"/>
		<path fill="#83B489" d="M413.7,268.6c0-26.1,21.4-47.4,47.9-47.4c26.7,0,48.3,21.4,48.3,47.4c0,26.3-21.6,47.5-48.3,47.5
			C435.1,316.2,413.7,295.1,413.7,268.6z M491.1,268.8c0-17.2-13.1-31.2-29.6-31.2c-16.2,0-29.4,14-29.4,31.2s13.2,31,29.4,31
			C478.1,299.8,491.1,286,491.1,268.8z"/>
		<path fill="#83B489" d="M530.3,307.6v-77.9c0-4.2,2.5-6.5,6.7-6.5h5.4c4.2,0,6.5,2.4,6.5,6.5v13.8c3.1-14.5,13.4-22.3,24.3-22.3
			l4,0.2c3.8,0.5,4.4,3.6,4.4,7.3v5.3c0,4.5-1.8,6.4-4.9,5.6c-1.6-0.4-3.3-0.5-4.9-0.5c-6.5,0-22.9,3.3-22.9,40.5v28.1
			c0,4.2-2.4,6.5-6.5,6.5H537C532.9,314.2,530.3,311.8,530.3,307.6z"/>
		<path fill="#83B489" d="M597.5,307.6v-77.9c0-4.2,2.5-6.5,6.7-6.5h5.4c4.2,0,6.5,2.4,6.5,6.5V241c4-12.7,15.6-19.8,30.3-19.8
			c20.1,0,34.8,13.1,34.8,41.6v44.8c0,4.2-2.5,6.5-6.7,6.5h-5.4c-4.2,0-6.5-2.4-6.5-6.5V263c0-18.7-8.5-25.4-18.1-25.4
			c-9.4,0-28.3,6.4-28.3,33.9v36.1c0,4.2-2.4,6.5-6.5,6.5h-5.4C600,314.2,597.5,311.8,597.5,307.6z"/>
		<path fill="#83B489" d="M704.5,194.4c0-7.1,5.3-12.7,12.5-12.7c7.4,0,12.9,5.6,12.9,12.7c0,6.9-5.6,12.3-12.9,12.3
			S704.5,201.3,704.5,194.4z M707.8,307.6v-77.9c0-4.2,2.5-6.5,6.7-6.5h5.4c4.2,0,6.5,2.4,6.5,6.5v77.9c0,4.2-2.4,6.5-6.5,6.5h-5.4
			C710.4,314.2,707.8,311.8,707.8,307.6z"/>
		<path fill="#83B489" d="M747.9,269.7c0-26.7,18.3-48.5,51.2-48.5c7.3,0,17.1,1.5,27.4,7.4c3.8,2.2,4.4,5.8,1.8,9.3l-1.5,1.8
			c-2.5,3.4-5.3,3.6-9.3,1.8c-7.8-3.8-15.6-4-17.6-4c-19.2,0-33.4,12.7-33.4,31c0,18.3,14.2,31.2,33.4,31.2c2,0,9.8-0.2,17.6-4
			c4-2,6.9-1.6,9.3,1.8l1.3,1.8c2.5,3.4,1.3,7.8-4.5,10.7c-9.1,4.9-18,6-24.5,6C767,316.2,747.9,295.7,747.9,269.7z"/>
		<path fill="#83B489" d="M850.6,307.6V189.5c0-4.2,2.5-6.5,6.7-6.5h5.4c4.2,0,6.5,2.4,6.5,6.5V241c4-12.7,15.6-19.8,30.3-19.8
			c20.1,0,34.8,13.1,34.8,41.6v44.8c0,4.2-2.5,6.5-6.7,6.5h-5.4c-4.2,0-6.5-2.4-6.5-6.5V263c0-18.7-8.5-25.4-18.1-25.4
			c-9.4,0-28.3,6.4-28.3,33.9v36.1c0,4.2-2.4,6.5-6.5,6.5h-5.4C853.2,314.2,850.6,311.8,850.6,307.6z"/>
		<path fill="#83B489" d="M953.5,268.6c0-26.1,21.4-47.4,47.9-47.4c26.7,0,48.3,21.4,48.3,47.4c0,26.3-21.6,47.5-48.3,47.5
			C974.9,316.2,953.5,295.1,953.5,268.6z M1031,268.8c0-17.2-13.1-31.2-29.6-31.2c-16.2,0-29.4,14-29.4,31.2s13.2,31,29.4,31
			C1017.9,299.8,1031,286,1031,268.8z"/>
		<path fill="#83B489" d="M1070.2,307.6v-77.9c0-4.2,2.5-6.5,6.7-6.5h5.4c4.2,0,6.5,2.4,6.5,6.5V241c4-12.7,15.6-19.8,30.3-19.8
			c20.1,0,34.8,13.1,34.8,41.6v44.8c0,4.2-2.5,6.5-6.7,6.5h-5.4c-4.2,0-6.5-2.4-6.5-6.5V263c0-18.7-8.5-25.4-18.1-25.4
			c-9.4,0-28.3,6.4-28.3,33.9v36.1c0,4.2-2.4,6.5-6.5,6.5h-5.4C1072.7,314.2,1070.2,311.8,1070.2,307.6z"/>
	</g>
</g>
<g>
	<path fill="#83B489" d="M67.2,574.1l14.9-37.9c0.3-0.9,0.9-1.3,1.8-1.3h2.8c0.9,0,1.5,0.4,1.8,1.3l14.9,37.9
		c0.4,1.1-0.1,1.8-1.2,1.8h-1.4c-0.9,0-1.5-0.4-1.9-1.3l-2.9-7.5H74.7l-2.9,7.5c-0.3,0.9-0.9,1.3-1.8,1.3h-1.5
		C67.3,575.9,66.8,575.2,67.2,574.1z M94.7,563.3l-9.3-24l-9.3,24H94.7z"/>
	<path fill="#83B489" d="M121.6,571.1c-0.6-1-0.1-1.7,0.9-2l1.1-0.3c0.9-0.2,1.4,0.1,2,0.9c1.2,1.8,3.5,3,6.2,3
		c3.3,0,5.8-1.9,5.8-4.7c0-2.2-1.6-3.6-4.1-4.4l-4.2-1.3c-4.2-1.3-7-3.6-7-7.7c0-4.6,3.6-8.5,9.4-8.5c3.3,0,6.7,1.3,8.5,4.8
		c0.5,1,0,1.8-1.1,2l-0.9,0.2c-0.9,0.2-1.4-0.1-2-0.9c-1.1-1.5-2.8-2.2-4.4-2.2c-3.2,0-5.2,2.2-5.2,4.5c0,2.4,2,3.6,4,4.2l4.3,1.4
		c5.2,1.6,6.8,4.8,6.8,8c0,5.3-4.7,8.5-10.1,8.5C127.4,576.6,123.5,574.6,121.6,571.1z"/>
	<path fill="#83B489" d="M146.7,561.6c0-8.6,5.9-15.5,16.5-15.5c2.2,0,5.6,0.5,9,2.6c0.9,0.5,1.1,1.4,0.5,2.2l-0.4,0.5
		c-0.6,0.8-1.2,0.9-2.2,0.4c-2.8-1.6-5.6-1.8-6.7-1.8c-7.2,0-12.1,4.8-12.1,11.3c0.1,6.5,4.9,11.2,12.1,11.2c1.1,0,3.9-0.2,6.7-1.8
		c0.9-0.5,1.6-0.4,2.2,0.5l0.4,0.5c0.6,0.8,0.3,1.9-1.2,2.6c-3.1,1.7-6.2,2.1-8.2,2.1C152.8,576.6,146.8,569.9,146.7,561.6z"/>
	<path fill="#83B489" d="M177.3,561.3c0-8.4,5.6-15.3,14.6-15.3c4.7,0,8.8,2,11.5,6.4v-4.2c0-0.9,0.5-1.6,1.5-1.6h1.3
		c1,0,1.6,0.6,1.6,1.6v26.1c0,1-0.6,1.6-1.6,1.6h-1.3c-1,0-1.5-0.6-1.5-1.6v-4.2c-2.6,4.5-6.8,6.4-11.5,6.4
		C183,576.6,177.3,569.7,177.3,561.3z M203.4,561.3c0-6.4-4.5-11.3-11.1-11.3c-6.7,0-10.6,5.2-10.6,11.3s3.9,11.2,10.7,11.2
		C198.8,572.6,203.4,567.9,203.4,561.3z"/>
	<path fill="#83B489" d="M217.4,574.3v-39.2c0-1,0.6-1.6,1.6-1.6h1.3c0.9,0,1.5,0.6,1.5,1.6v39.2c0,1-0.6,1.6-1.5,1.6H219
		C218,575.9,217.4,575.3,217.4,574.3z"/>
	<path fill="#83B489" d="M229.3,561.3c0-8.4,5.6-15.3,14.6-15.3c4.7,0,8.8,2,11.5,6.4v-4.2c0-0.9,0.5-1.6,1.5-1.6h1.3
		c1,0,1.6,0.6,1.6,1.6v26.1c0,1-0.6,1.6-1.6,1.6h-1.3c-1,0-1.5-0.6-1.5-1.6v-4.2c-2.6,4.5-6.8,6.4-11.5,6.4
		C235.1,576.6,229.3,569.7,229.3,561.3z M255.5,561.3c0-6.4-4.5-11.3-11.1-11.3c-6.7,0-10.6,5.2-10.6,11.3s3.9,11.2,10.7,11.2
		C250.9,572.6,255.5,567.9,255.5,561.3z"/>
	<path fill="#83B489" d="M286.4,574.3v-37.8c0-1,0.6-1.6,1.6-1.6h11.2c12.6,0,20.8,9.2,20.8,20.5s-8.2,20.5-20.8,20.5h-11.2
		C287,575.9,286.4,575.3,286.4,574.3z M299.2,572.1c9.7,0,16-7.5,16-16.7s-6.4-16.7-16-16.7H291v33.4H299.2z"/>
	<path fill="#83B489" d="M325.5,568.5c-0.5-0.9,0-1.6,1-1.9l1.4-0.4c0.9-0.2,1.5,0.1,1.9,1c1.5,2.8,5,5.3,9.8,5.3
		c6,0,9.6-3.2,9.6-7.2c0-3.7-3.2-6-6.7-7.2l-6.6-2.2c-7.8-2.5-9.2-7-9.2-10.5c0-6.9,6.1-11.1,13-11.1c6.3,0,10.9,3.1,12.6,7.7
		c0.4,0.9-0.1,1.6-1.1,1.9l-1.2,0.4c-0.9,0.3-1.5-0.1-1.9-1c-1.3-3.1-4.4-4.9-8.4-4.9c-4.5,0-8.3,2.5-8.3,6.8c0,2,0.7,4.6,5.9,6.5
		l6.6,2.3c6,1.9,9.8,6.2,9.8,10.9c0,6.8-5.6,11.6-14.1,11.6C332.6,576.6,327.6,573,325.5,568.5z"/>
	<path fill="#83B489" d="M362.6,574.3v-37.8c0-1,0.6-1.6,1.6-1.6h1.5c1,0,1.6,0.6,1.6,1.6v35.6h17.6c0.9,0,1.5,0.6,1.5,1.5v0.7
		c0,1-0.5,1.6-1.5,1.6h-20.7C363.1,575.9,362.6,575.3,362.6,574.3z"/>
	<path fill="#83B489" d="M407.8,574.3v-24.1H404c-0.6,0-0.9-0.3-0.9-0.9v-1.7c0-0.6,0.3-0.9,0.9-0.9h3.9v-2.4
		c0-9.2,4.9-11.3,9.3-11.3c5.6,0,8.4,3.1,8.4,7.1c0,0.3,0,0.7-0.1,1.1c-0.1,0.3-0.5,0.5-0.8,0.5h-2.2c-0.5,0-0.9-0.3-0.9-0.9
		c0.1-0.3,0.1-0.5,0.1-0.6c0-2-1.8-3.3-4.2-3.3c-2.9,0-4.9,2.2-4.9,6.7v3h7.1c0.6,0,0.9,0.4,0.9,0.9v1.7c0,0.6-0.4,0.9-0.9,0.9h-7.1
		v24.1c0,1-0.6,1.6-1.6,1.6h-1.5C408.4,575.9,407.8,575.3,407.8,574.3z"/>
	<path fill="#83B489" d="M422.9,561.3c0-8.4,6.9-15.3,15.3-15.3c8.5,0,15.4,7,15.4,15.3c0,8.4-6.9,15.2-15.4,15.2
		C429.8,576.6,422.9,569.8,422.9,561.3z M449.1,561.4c0-6.2-4.9-11.4-10.9-11.4c-5.9,0-10.8,5.2-10.8,11.4c0,6.2,4.9,11.2,10.8,11.2
		C444.2,572.6,449.1,567.5,449.1,561.4z"/>
	<path fill="#83B489" d="M460.8,574.3v-26.1c0-0.9,0.6-1.6,1.5-1.6h1.3c1,0,1.6,0.6,1.6,1.6v5.5c1.1-4.7,4.3-7.7,8.6-7.7
		c0.4,0,1,0.1,1.4,0.1c0.9,0.2,1.1,0.9,1.1,1.8v1.2c0,1.1-0.4,1.6-1.2,1.3c-0.5-0.1-1.1-0.1-1.6-0.1c-3.7,0-8.2,3.3-8.3,14.4v9.5
		c0,1-0.6,1.6-1.6,1.6h-1.3C461.3,575.9,460.8,575.3,460.8,574.3z"/>
	<path fill="#83B489" d="M497,566.8v-16.5h-4c-0.6,0-0.9-0.3-0.9-0.9v-1.7c0-0.6,0.3-0.9,0.9-0.9h4l0.9-7.5c0.1-0.9,0.6-1.3,1.5-1.3
		h0.8c0.9,0,1.4,0.5,1.4,1.3v7.4h8.5c0.6,0,0.9,0.4,0.9,0.9v1.7c0,0.6-0.4,0.9-0.9,0.9h-8.5v16.8c0,4.3,2,5.6,4.2,5.6
		c2.3,0,4.2-1.4,4.2-3.9c0-0.2,0-0.6-0.1-1.1c-0.1-0.7,0.2-1.1,0.8-1.1h2c0.5,0,0.9,0.2,1.1,0.8c0.2,0.9,0.2,1.9,0.2,1.9
		c0,4-2.9,7.2-8.2,7.2C501.3,576.6,497,574.4,497,566.8z"/>
	<path fill="#83B489" d="M517.1,561.4c0-8.5,6.6-15.4,15.6-15.4c7.1,0,13.8,4.3,14.6,13.6c0.2,1-0.5,1.6-1.5,1.6h-24.2
		c-0.4,6.5,4.7,11.3,11.9,11.3c3.1,0,6.1-0.9,8.8-2.9c0.8-0.5,1.5-0.5,2.2,0.2l0.5,0.5c0.6,0.7,0.6,1.6-0.4,2.5
		c-3.4,2.9-7.4,3.8-11.1,3.8C523.5,576.6,517.1,569.7,517.1,561.4z M542.9,557.8c-1.3-6-5.9-7.8-10-7.8c-4.6,0-9.1,2.4-10.8,7.8
		H542.9z"/>
	<path fill="#83B489" d="M552,571.1c-0.6-1-0.1-1.7,0.9-2l1.1-0.3c0.9-0.2,1.4,0.1,2,0.9c1.2,1.8,3.5,3,6.2,3c3.3,0,5.8-1.9,5.8-4.7
		c0-2.2-1.6-3.6-4.1-4.4l-4.2-1.3c-4.2-1.3-7-3.6-7-7.7c0-4.6,3.6-8.5,9.4-8.5c3.3,0,6.7,1.3,8.5,4.8c0.5,1,0,1.8-1.1,2l-0.9,0.2
		c-0.9,0.2-1.4-0.1-2-0.9c-1.1-1.5-2.8-2.2-4.4-2.2c-3.2,0-5.2,2.2-5.2,4.5c0,2.4,2,3.6,4,4.2l4.3,1.4c5.2,1.6,6.8,4.8,6.8,8
		c0,5.3-4.7,8.5-10.1,8.5C557.8,576.6,553.9,574.6,552,571.1z"/>
	<path fill="#83B489" d="M580.6,566.8v-16.5h-4c-0.6,0-0.9-0.3-0.9-0.9v-1.7c0-0.6,0.3-0.9,0.9-0.9h4l0.9-7.5
		c0.1-0.9,0.6-1.3,1.5-1.3h0.8c0.9,0,1.4,0.5,1.4,1.3v7.4h8.5c0.6,0,0.9,0.4,0.9,0.9v1.7c0,0.6-0.4,0.9-0.9,0.9h-8.5v16.8
		c0,4.3,2,5.6,4.2,5.6c2.3,0,4.2-1.4,4.2-3.9c0-0.2,0-0.6-0.1-1.1c-0.1-0.7,0.2-1.1,0.8-1.1h2c0.5,0,0.9,0.2,1.1,0.8
		c0.2,0.9,0.2,1.9,0.2,1.9c0,4-2.9,7.2-8.2,7.2C585,576.6,580.6,574.4,580.6,566.8z"/>
	<path fill="#83B489" d="M602.2,537c0-1.9,1.3-3.3,3.2-3.3c1.8,0,3.2,1.4,3.2,3.3c0,1.9-1.4,3.3-3.2,3.3
		C603.6,540.2,602.2,538.8,602.2,537z M603.2,574.3v-26.1c0-0.9,0.6-1.6,1.6-1.6h1.3c0.9,0,1.5,0.6,1.5,1.6v26.1
		c0,1-0.6,1.6-1.5,1.6h-1.3C603.8,575.9,603.2,575.3,603.2,574.3z"/>
	<path fill="#83B489" d="M617.3,574.3v-26.1c0-0.9,0.6-1.6,1.5-1.6h1.3c1,0,1.6,0.6,1.6,1.6v4.6c1.6-4.6,5.9-6.9,10.2-6.9
		c6.2,0,11.6,3.6,11.6,13.3v15c0,1-0.6,1.6-1.6,1.6h-1.3c-1,0-1.6-0.6-1.6-1.6v-15c0-7.1-3.7-9.3-7.4-9.3c-3.2,0-9.8,2.3-9.9,11.7
		v12.6c0,1-0.6,1.6-1.6,1.6h-1.3C617.9,575.9,617.3,575.3,617.3,574.3z"/>
	<path fill="#83B489" d="M654.5,586.5c-0.8-0.5-0.9-1.3-0.5-2.2l0.4-0.7c0.5-1,1.2-1.1,2.1-0.5c2.9,1.9,5.9,2.6,9.3,2.6
		c6.3,0,10.7-3.9,10.7-10.5v-5c-2.6,4.5-6.8,6.4-11.5,6.4c-8.8,0-14.6-6.9-14.6-15.2c0-8.4,5.6-15.3,14.6-15.3c4.7,0,8.8,2,11.5,6.4
		v-4.2c0-0.9,0.5-1.6,1.5-1.6h1.3c1,0,1.6,0.6,1.6,1.6v27.3c0,9.4-6.9,14.1-15.1,14.1C660.8,589.7,657.4,588.5,654.5,586.5z
		 M676.5,561.3c0-6.4-4.5-11.3-11.1-11.3c-6.7,0-10.6,5.2-10.6,11.3s3.9,11.2,10.7,11.2C671.9,572.6,676.5,567.9,676.5,561.3z"/>
	<path fill="#83B489" d="M707.3,574.3v-37.8c0-1,0.6-1.6,1.6-1.6h1.5c1,0,1.6,0.6,1.6,1.6v18h21v-18c0-1,0.6-1.6,1.6-1.6h1.5
		c1,0,1.6,0.6,1.6,1.6v37.8c0,1-0.6,1.6-1.6,1.6h-1.5c-1,0-1.6-0.6-1.6-1.6v-16h-21v16c0,1-0.6,1.6-1.6,1.6h-1.5
		C707.9,575.9,707.3,575.3,707.3,574.3z"/>
	<path fill="#83B489" d="M777.7,536.5v0.7c0,0.9-0.6,1.5-1.6,1.5h-12.7v35.6c0,1-0.6,1.6-1.6,1.6h-1.5c-1,0-1.6-0.6-1.6-1.6v-35.6
		h-12.7c-1,0-1.6-0.6-1.6-1.5v-0.7c0-1,0.6-1.6,1.6-1.6h30C777.1,534.9,777.7,535.5,777.7,536.5z"/>
	<path fill="#83B489" d="M812.8,536.5v0.7c0,0.9-0.6,1.5-1.6,1.5h-12.7v35.6c0,1-0.6,1.6-1.6,1.6h-1.5c-1,0-1.6-0.6-1.6-1.6v-35.6
		h-12.7c-1,0-1.6-0.6-1.6-1.5v-0.7c0-1,0.6-1.6,1.6-1.6h30C812.2,534.9,812.8,535.5,812.8,536.5z"/>
	<path fill="#83B489" d="M847.9,547.6c0,6.8-4.5,12.4-12.1,12.4h-11.4v14.4c0,1-0.6,1.6-1.6,1.6h-1.5c-1,0-1.6-0.6-1.6-1.6v-37.8
		c0-1,0.6-1.6,1.6-1.6h14.5C843.5,534.9,847.9,540.8,847.9,547.6z M843.1,547.5c0-5-3-8.8-8.1-8.8h-10.5v17.5h10.5
		C840,556.2,843.1,552.5,843.1,547.5z"/>
	<path fill="#83B489" d="M864.7,561.9c0-0.6,0.2-2.2,0.6-3.5c0.2-0.9,0.9-1.2,1.8-1.2h1.3c1.1,0,1.5,0.6,1.3,1.8
		c-0.3,1.1-0.5,2.2-0.5,2.8c0,5.6,3.2,10.7,10.8,10.7c7.8,0,12.1-5.6,12.1-15.1v-20.8c0-1,0.5-1.6,1.5-1.6h1.5c1,0,1.6,0.6,1.6,1.6
		v20.8c0,12.5-6.1,19.3-16.6,19.3C869.1,576.6,864.7,569.3,864.7,561.9z"/>
	<path fill="#83B489" d="M904.6,568.5c-0.5-0.9,0-1.6,1-1.9l1.4-0.4c0.9-0.2,1.5,0.1,1.9,1c1.5,2.8,5,5.3,9.8,5.3
		c6,0,9.6-3.2,9.6-7.2c0-3.7-3.2-6-6.7-7.2l-6.6-2.2c-7.8-2.5-9.2-7-9.2-10.5c0-6.9,6.1-11.1,13-11.1c6.3,0,10.9,3.1,12.6,7.7
		c0.4,0.9-0.1,1.6-1.1,1.9l-1.2,0.4c-0.9,0.3-1.5-0.1-1.9-1c-1.3-3.1-4.4-4.9-8.4-4.9c-4.5,0-8.3,2.5-8.3,6.8c0,2,0.7,4.6,5.9,6.5
		l6.6,2.3c6,1.9,9.8,6.2,9.8,10.9c0,6.8-5.6,11.6-14.1,11.6C911.6,576.6,906.6,573,904.6,568.5z"/>
	<path fill="#83B489" d="M938.4,555.4c0-11.7,9.6-21.1,21.3-21.1c11.7,0,21.3,9.5,21.3,21.1s-9.5,21.1-21.3,21.1
		C948,576.6,938.4,567.1,938.4,555.4z M976.2,555.4c0-9.5-7.5-17-16.6-17c-9.1,0-16.5,7.4-16.5,17s7.4,17,16.5,17
		C968.7,572.4,976.2,565,976.2,555.4z"/>
	<path fill="#83B489" d="M989.8,574.3v-37.8c0-1,0.6-1.6,1.6-1.6h0.8c0.8,0,1.4,0.3,1.9,0.9l23.4,31.6v-31c0-1,0.6-1.6,1.6-1.6h1.5
		c0.9,0,1.5,0.6,1.5,1.6v37.8c0,1-0.5,1.6-1.5,1.6h-0.8c-0.8,0-1.5-0.3-1.9-0.9l-23.4-31.7v31.1c0,1-0.6,1.6-1.6,1.6h-1.5
		C990.3,575.9,989.8,575.3,989.8,574.3z"/>
	<path fill="#83B489" d="M1043.6,574.1l14.9-37.9c0.3-0.9,0.9-1.3,1.8-1.3h2.8c0.9,0,1.5,0.4,1.8,1.3l14.9,37.9
		c0.4,1.1-0.1,1.8-1.2,1.8h-1.4c-0.9,0-1.5-0.4-1.9-1.3l-2.9-7.5h-21.4l-2.9,7.5c-0.3,0.9-0.9,1.3-1.8,1.3h-1.5
		C1043.7,575.9,1043.2,575.2,1043.6,574.1z M1071,563.3l-9.3-24l-9.3,24H1071z"/>
	<path fill="#83B489" d="M1115.6,547.6c0,6.8-4.5,12.4-12.1,12.4h-11.4v14.4c0,1-0.6,1.6-1.6,1.6h-1.5c-1,0-1.6-0.6-1.6-1.6v-37.8
		c0-1,0.6-1.6,1.6-1.6h14.5C1111.1,534.9,1115.6,540.8,1115.6,547.6z M1110.7,547.5c0-5-3-8.8-8.1-8.8h-10.5v17.5h10.5
		C1107.7,556.2,1110.7,552.5,1110.7,547.5z"/>
	<path fill="#83B489" d="M1123.7,574.3v-37.8c0-1,0.6-1.6,1.6-1.6h1.5c1,0,1.6,0.6,1.6,1.6v37.8c0,1-0.6,1.6-1.6,1.6h-1.5
		C1124.3,575.9,1123.7,575.3,1123.7,574.3z"/>
</g>
</svg>
